<svg xmlns="http://www.w3.org/2000/svg" viewBox="0 0 260 260"><defs><style>.cls-1{fill:#4170a0}.cls-2{fill:#fff}.cls-3{fill:#9db6ce}</style></defs><title>icon</title><g id="Layer_2" data-name="Layer 2"><g id="Layer_1-2" data-name="Layer 1"><rect class="cls-1" width="260" height="260" rx="4.99" ry="4.99"/><path class="cls-2" d="M178 44.18v-9.5h-69.47a3.31 3.31 0 0 1-3.36-3 3.19 3.19 0 0 1 3.18-3.36h72a4.08 4.08 0 0 1 4.08 4.08v11.78h8.23V26a5.94 5.94 0 0 0-5.98-6H100.6a2.73 2.73 0 0 0-2.73 2.73v21.45z"/><path class="cls-3" d="M97.87 28.44H69.63a2.24 2.24 0 0 0-2.24 2.24v10.65h30.48z"/><path class="cls-2" d="M220.57 41.33H39a3.11 3.11 0 0 0-3.11 3.11v46.24A3.11 3.11 0 0 0 39 93.8h181.57a3.11 3.11 0 0 0 3.11-3.11V44.44a3.11 3.11 0 0 0-3.11-3.11zm-8.66 37.58a3.11 3.11 0 0 1-3.12 3.09H50.8a3.11 3.11 0 0 1-3.11-3.11V56.22a3.11 3.11 0 0 1 3.11-3.12h158a3.11 3.11 0 0 1 3.11 3.11zM39.43 109a3.11 3.11 0 0 0-3.11 3.11v66a18.21 18.21 0 0 0 9.08 15.73l75.73 43.72a18.19 18.19 0 0 0 18.16 0L215 193.83a18.21 18.21 0 0 0 9.08-15.73v-66A3.11 3.11 0 0 0 221 109zm172.89 69.1a6.4 6.4 0 0 1-3.19 5.53l-75.73 43.72a6.51 6.51 0 0 1-6.38 0l-75.73-43.72a6.4 6.4 0 0 1-3.19-5.53v-54.2a3.11 3.11 0 0 1 3.11-3.11h158a3.11 3.11 0 0 1 3.11 3.11z"/><path class="cls-2" d="M65.21 74.21h4.36s3.7-6.49 3.7-6.65-3.7-6.65-3.7-6.65h-7.69s-3.7 6.49-3.7 6.65 3.7 6.65 3.7 6.65zm128.55 0h4.36s3.7-6.49 3.7-6.65-3.7-6.65-3.7-6.65h-7.68s-3.7 6.49-3.7 6.65 3.7 6.65 3.7 6.65zM65.21 141.89h4.36s3.7-6.49 3.7-6.65-3.7-6.65-3.7-6.65h-7.69s-3.7 6.49-3.7 6.65 3.7 6.65 3.7 6.65zm128.55 0h4.36s3.7-6.49 3.7-6.65-3.7-6.65-3.7-6.65h-7.68s-3.7 6.49-3.7 6.65 3.7 6.65 3.7 6.65z"/></g></g></svg>