<svg id="Layer_1" xmlns="http://www.w3.org/2000/svg" viewBox="0 0 260 260"><style>.st0{fill:#f9f9f9}.st1{fill:#4b4a4b}</style><title>icon</title><g id="Layer_2"><g id="Layer_1-2"><path class="st0" d="M178 44.2v-9.5h-69.5c-1.7 0-3.2-1.3-3.4-3-.1-1.8 1.3-3.3 3-3.4h72.2c2.3 0 4.1 1.8 4.1 4.1v11.8h8.2V26c0-3.3-2.6-6-5.9-6h-86.2c-1.5 0-2.7 1.2-2.7 2.7v21.5H178z"/><path class="st1" d="M97.9 28.4H69.6c-1.2 0-2.2 1-2.2 2.2v10.7h30.5V28.4z"/><path class="st0" d="M220.6 41.3H39c-1.7 0-3.1 1.4-3.1 3.1v46.2c0 1.7 1.4 3.1 3.1 3.1h181.6c1.7 0 3.1-1.4 3.1-3.1V44.4c0-1.7-1.4-3.1-3.1-3.1zm-8.7 37.6c0 1.7-1.4 3.1-3.1 3.1h-158c-1.7 0-3.1-1.4-3.1-3.1V56.2c0-1.7 1.4-3.1 3.1-3.1h158c1.7 0 3.1 1.4 3.1 3.1v22.7zM39.4 109c-1.7 0-3.1 1.4-3.1 3.1v66c0 6.5 3.5 12.5 9.1 15.7l75.7 43.7c5.6 3.2 12.5 3.2 18.2 0l75.7-43.7c5.6-3.3 9.1-9.2 9.1-15.7v-66c0-1.7-1.4-3.1-3.1-3.1H39.4zm172.9 69.1c0 2.3-1.2 4.4-3.2 5.5l-75.7 43.7c-2 1.1-4.4 1.1-6.4 0l-75.7-43.7c-2-1.1-3.2-3.3-3.2-5.5v-54.2c0-1.7 1.4-3.1 3.1-3.1h158c1.7 0 3.1 1.4 3.1 3.1v54.2z"/><path class="st0" d="M65.2 74.2h4.4s3.7-6.5 3.7-6.7-3.7-6.7-3.7-6.7h-7.7s-3.7 6.5-3.7 6.7 3.7 6.7 3.7 6.7h3.3zm128.6 0h4.4s3.7-6.5 3.7-6.7-3.7-6.7-3.7-6.7h-7.7s-3.7 6.5-3.7 6.7 3.7 6.7 3.7 6.7h3.3zM65.2 141.9h4.4s3.7-6.5 3.7-6.6-3.7-6.6-3.7-6.6h-7.7s-3.7 6.5-3.7 6.6 3.7 6.6 3.7 6.6h3.3zm128.6 0h4.4s3.7-6.5 3.7-6.6-3.7-6.6-3.7-6.6h-7.7s-3.7 6.5-3.7 6.6 3.7 6.6 3.7 6.6h3.3z"/></g></g></svg>